<svg width="14" height="14" viewBox="0 0 14 14" fill="none" xmlns="http://www.w3.org/2000/svg">
<g>
<path d="M6.99984 1.15308C5.63875 1.15308 4.42833 2.18363 3.47249 3.79858C2.64353 5.1982 2.10986 6.85267 2.10986 8.19295C2.10986 10.7723 4.32599 12.8471 6.99984 12.8471C9.67368 12.8471 11.8898 10.7728 11.8898 8.19295C11.8898 6.85267 11.3561 5.19706 10.5272 3.79744C9.57131 2.18244 8.36071 1.15308 6.99984 1.15308ZM6.99984 2.31974C7.74013 2.31974 8.67914 2.96568 9.52344 4.39217C10.252 5.62222 10.7231 7.1859 10.7231 8.19295C10.7231 10.1036 9.07549 11.6804 6.99984 11.6804C4.92418 11.6804 3.27653 10.1029 3.27653 8.19295C3.27653 7.1859 3.7477 5.62336 4.47624 4.39331C5.32056 2.96676 6.25976 2.31974 6.99984 2.31974ZM5.24984 7.00008C5.09513 7.00008 4.94675 7.06154 4.83736 7.17094C4.72796 7.28033 4.6665 7.4287 4.6665 7.58341C4.6665 7.73812 4.72796 7.8865 4.83736 7.99589C4.94675 8.10529 5.09513 8.16675 5.24984 8.16675C5.40455 8.16675 5.55292 8.10529 5.66232 7.99589C5.77171 7.8865 5.83317 7.73812 5.83317 7.58341C5.83317 7.4287 5.77171 7.28033 5.66232 7.17094C5.55292 7.06154 5.40455 7.00008 5.24984 7.00008ZM8.74984 7.00008C8.59513 7.00008 8.44675 7.06154 8.33736 7.17094C8.22796 7.28033 8.1665 7.4287 8.1665 7.58341C8.1665 7.73812 8.22796 7.8865 8.33736 7.99589C8.44675 8.10529 8.59513 8.16675 8.74984 8.16675C8.90455 8.16675 9.05292 8.10529 9.16232 7.99589C9.27171 7.8865 9.33317 7.73812 9.33317 7.58341C9.33317 7.4287 9.27171 7.28033 9.16232 7.17094C9.05292 7.06154 8.90455 7.00008 8.74984 7.00008ZM5.83317 9.33341C5.83317 9.978 6.35525 10.5001 6.99984 10.5001C7.64442 10.5001 8.1665 9.978 8.1665 9.33341H5.83317Z" fill="currentColor"/>
</g>
</svg>
