<svg width="14" height="14" viewBox="0 0 14 14" fill="none" xmlns="http://www.w3.org/2000/svg">
<g>
<path d="M6.99984 1.16675C3.77809 1.16675 1.1665 3.77833 1.1665 7.00008C1.1665 10.2218 3.77809 12.8334 6.99984 12.8334C10.2216 12.8334 12.8332 10.2218 12.8332 7.00008C12.8332 3.77833 10.2216 1.16675 6.99984 1.16675ZM6.99984 2.33341C9.577 2.33341 11.6665 4.42291 11.6665 7.00008C11.6665 9.57725 9.577 11.6667 6.99984 11.6667C4.42267 11.6667 2.33317 9.57725 2.33317 7.00008C2.33317 4.42291 4.42267 2.33341 6.99984 2.33341ZM4.95817 4.66675C4.72611 4.66675 4.50355 4.75894 4.33945 4.92303C4.17536 5.08712 4.08317 5.30968 4.08317 5.54175C4.08317 5.77381 4.17536 5.99637 4.33945 6.16047C4.50355 6.32456 4.72611 6.41675 4.95817 6.41675C5.19023 6.41675 5.41279 6.32456 5.57689 6.16047C5.74098 5.99637 5.83317 5.77381 5.83317 5.54175C5.83317 5.30968 5.74098 5.08712 5.57689 4.92303C5.41279 4.75894 5.19023 4.66675 4.95817 4.66675ZM9.0415 4.66675C8.80944 4.66675 8.58688 4.75894 8.42279 4.92303C8.25869 5.08712 8.1665 5.30968 8.1665 5.54175C8.1665 5.77381 8.25869 5.99637 8.42279 6.16047C8.58688 6.32456 8.80944 6.41675 9.0415 6.41675C9.27357 6.41675 9.49613 6.32456 9.66022 6.16047C9.82432 5.99637 9.9165 5.77381 9.9165 5.54175C9.9165 5.30968 9.82432 5.08712 9.66022 4.92303C9.49613 4.75894 9.27357 4.66675 9.0415 4.66675ZM4.01937 8.16675C4.48604 9.35675 5.64067 10.2084 6.99984 10.2084C8.359 10.2084 9.51364 9.35675 9.98031 8.16675H4.01937Z" fill="currentColor"/>
</g>
</svg>
